<mxfile host="app.diagrams.net" modified="2023-06-08T01:31:37.259Z" agent="Mozilla/5.0 (Windows NT 10.0; Win64; x64) AppleWebKit/537.36 (KHTML, like Gecko) Chrome/114.0.0.0 Safari/537.36" etag="evLJJOQ18VkuqM1nQRbU" version="21.3.7" type="device">
  <diagram name="페이지-1" id="U4wE5s66EwWKEy1n8gNJ">
    <mxGraphModel dx="1395" dy="657" grid="1" gridSize="10" guides="1" tooltips="1" connect="1" arrows="1" fold="1" page="1" pageScale="1" pageWidth="4681" pageHeight="3300" math="0" shadow="0">
      <root>
        <mxCell id="0" />
        <mxCell id="1" parent="0" />
        <mxCell id="Fx8gEMRj13vOH7JedruB-2" style="edgeStyle=orthogonalEdgeStyle;rounded=0;orthogonalLoop=1;jettySize=auto;html=1;" edge="1" parent="1" source="Fx8gEMRj13vOH7JedruB-1" target="Fx8gEMRj13vOH7JedruB-3">
          <mxGeometry relative="1" as="geometry">
            <mxPoint x="269.9999999999998" y="170" as="targetPoint" />
          </mxGeometry>
        </mxCell>
        <mxCell id="Fx8gEMRj13vOH7JedruB-1" value="사용자" style="shape=umlActor;verticalLabelPosition=bottom;verticalAlign=top;html=1;outlineConnect=0;" vertex="1" parent="1">
          <mxGeometry x="170" y="140" width="30" height="60" as="geometry" />
        </mxCell>
        <mxCell id="Fx8gEMRj13vOH7JedruB-25" style="edgeStyle=orthogonalEdgeStyle;rounded=0;orthogonalLoop=1;jettySize=auto;html=1;entryX=0;entryY=0.5;entryDx=0;entryDy=0;" edge="1" parent="1" source="Fx8gEMRj13vOH7JedruB-3" target="Fx8gEMRj13vOH7JedruB-17">
          <mxGeometry relative="1" as="geometry" />
        </mxCell>
        <mxCell id="Fx8gEMRj13vOH7JedruB-3" value="시작 화면" style="ellipse;whiteSpace=wrap;html=1;" vertex="1" parent="1">
          <mxGeometry x="330" y="145" width="120" height="50" as="geometry" />
        </mxCell>
        <mxCell id="Fx8gEMRj13vOH7JedruB-6" value="최신 영화" style="swimlane;fontStyle=0;childLayout=stackLayout;horizontal=1;startSize=30;horizontalStack=0;resizeParent=1;resizeParentMax=0;resizeLast=0;collapsible=1;marginBottom=0;whiteSpace=wrap;html=1;" vertex="1" parent="1">
          <mxGeometry x="320" y="220" width="140" height="180" as="geometry" />
        </mxCell>
        <mxCell id="Fx8gEMRj13vOH7JedruB-7" value="영화명" style="text;strokeColor=none;fillColor=none;align=left;verticalAlign=middle;spacingLeft=4;spacingRight=4;overflow=hidden;points=[[0,0.5],[1,0.5]];portConstraint=eastwest;rotatable=0;whiteSpace=wrap;html=1;" vertex="1" parent="Fx8gEMRj13vOH7JedruB-6">
          <mxGeometry y="30" width="140" height="30" as="geometry" />
        </mxCell>
        <mxCell id="Fx8gEMRj13vOH7JedruB-8" value="감독" style="text;strokeColor=none;fillColor=none;align=left;verticalAlign=middle;spacingLeft=4;spacingRight=4;overflow=hidden;points=[[0,0.5],[1,0.5]];portConstraint=eastwest;rotatable=0;whiteSpace=wrap;html=1;" vertex="1" parent="Fx8gEMRj13vOH7JedruB-6">
          <mxGeometry y="60" width="140" height="30" as="geometry" />
        </mxCell>
        <mxCell id="Fx8gEMRj13vOH7JedruB-9" value="출연진" style="text;strokeColor=none;fillColor=none;align=left;verticalAlign=middle;spacingLeft=4;spacingRight=4;overflow=hidden;points=[[0,0.5],[1,0.5]];portConstraint=eastwest;rotatable=0;whiteSpace=wrap;html=1;" vertex="1" parent="Fx8gEMRj13vOH7JedruB-6">
          <mxGeometry y="90" width="140" height="30" as="geometry" />
        </mxCell>
        <mxCell id="Fx8gEMRj13vOH7JedruB-10" value="개봉일자" style="text;strokeColor=none;fillColor=none;align=left;verticalAlign=middle;spacingLeft=4;spacingRight=4;overflow=hidden;points=[[0,0.5],[1,0.5]];portConstraint=eastwest;rotatable=0;whiteSpace=wrap;html=1;" vertex="1" parent="Fx8gEMRj13vOH7JedruB-6">
          <mxGeometry y="120" width="140" height="30" as="geometry" />
        </mxCell>
        <mxCell id="Fx8gEMRj13vOH7JedruB-11" value="영화 설명" style="text;strokeColor=none;fillColor=none;align=left;verticalAlign=middle;spacingLeft=4;spacingRight=4;overflow=hidden;points=[[0,0.5],[1,0.5]];portConstraint=eastwest;rotatable=0;whiteSpace=wrap;html=1;" vertex="1" parent="Fx8gEMRj13vOH7JedruB-6">
          <mxGeometry y="150" width="140" height="30" as="geometry" />
        </mxCell>
        <mxCell id="Fx8gEMRj13vOH7JedruB-29" style="edgeStyle=orthogonalEdgeStyle;rounded=0;orthogonalLoop=1;jettySize=auto;html=1;entryX=0;entryY=0.5;entryDx=0;entryDy=0;" edge="1" parent="1" source="Fx8gEMRj13vOH7JedruB-17" target="Fx8gEMRj13vOH7JedruB-28">
          <mxGeometry relative="1" as="geometry" />
        </mxCell>
        <mxCell id="Fx8gEMRj13vOH7JedruB-17" value="영화 검색" style="ellipse;whiteSpace=wrap;html=1;" vertex="1" parent="1">
          <mxGeometry x="530" y="145" width="120" height="50" as="geometry" />
        </mxCell>
        <mxCell id="Fx8gEMRj13vOH7JedruB-18" value="영화 검색" style="swimlane;fontStyle=0;childLayout=stackLayout;horizontal=1;startSize=30;horizontalStack=0;resizeParent=1;resizeParentMax=0;resizeLast=0;collapsible=1;marginBottom=0;whiteSpace=wrap;html=1;" vertex="1" parent="1">
          <mxGeometry x="515" y="220" width="150" height="180" as="geometry" />
        </mxCell>
        <mxCell id="Fx8gEMRj13vOH7JedruB-19" value="제목으로 검색하기" style="text;strokeColor=none;fillColor=none;align=left;verticalAlign=middle;spacingLeft=4;spacingRight=4;overflow=hidden;points=[[0,0.5],[1,0.5]];portConstraint=eastwest;rotatable=0;whiteSpace=wrap;html=1;" vertex="1" parent="Fx8gEMRj13vOH7JedruB-18">
          <mxGeometry y="30" width="150" height="30" as="geometry" />
        </mxCell>
        <mxCell id="Fx8gEMRj13vOH7JedruB-20" value="장르로 검색하기" style="text;strokeColor=none;fillColor=none;align=left;verticalAlign=middle;spacingLeft=4;spacingRight=4;overflow=hidden;points=[[0,0.5],[1,0.5]];portConstraint=eastwest;rotatable=0;whiteSpace=wrap;html=1;" vertex="1" parent="Fx8gEMRj13vOH7JedruB-18">
          <mxGeometry y="60" width="150" height="30" as="geometry" />
        </mxCell>
        <mxCell id="Fx8gEMRj13vOH7JedruB-21" value="주연으로 검색하기" style="text;strokeColor=none;fillColor=none;align=left;verticalAlign=middle;spacingLeft=4;spacingRight=4;overflow=hidden;points=[[0,0.5],[1,0.5]];portConstraint=eastwest;rotatable=0;whiteSpace=wrap;html=1;" vertex="1" parent="Fx8gEMRj13vOH7JedruB-18">
          <mxGeometry y="90" width="150" height="30" as="geometry" />
        </mxCell>
        <mxCell id="Fx8gEMRj13vOH7JedruB-22" value="감독으로 검색하기" style="text;strokeColor=none;fillColor=none;align=left;verticalAlign=middle;spacingLeft=4;spacingRight=4;overflow=hidden;points=[[0,0.5],[1,0.5]];portConstraint=eastwest;rotatable=0;whiteSpace=wrap;html=1;" vertex="1" parent="Fx8gEMRj13vOH7JedruB-18">
          <mxGeometry y="120" width="150" height="30" as="geometry" />
        </mxCell>
        <mxCell id="Fx8gEMRj13vOH7JedruB-23" value="내용(키워드)로 검색하기" style="text;strokeColor=none;fillColor=none;align=left;verticalAlign=middle;spacingLeft=4;spacingRight=4;overflow=hidden;points=[[0,0.5],[1,0.5]];portConstraint=eastwest;rotatable=0;whiteSpace=wrap;html=1;" vertex="1" parent="Fx8gEMRj13vOH7JedruB-18">
          <mxGeometry y="150" width="150" height="30" as="geometry" />
        </mxCell>
        <mxCell id="Fx8gEMRj13vOH7JedruB-26" value="영화평 남기기" style="ellipse;whiteSpace=wrap;html=1;" vertex="1" parent="1">
          <mxGeometry x="910" y="107.5" width="120" height="50" as="geometry" />
        </mxCell>
        <mxCell id="Fx8gEMRj13vOH7JedruB-39" style="edgeStyle=orthogonalEdgeStyle;rounded=0;orthogonalLoop=1;jettySize=auto;html=1;entryX=0;entryY=0.5;entryDx=0;entryDy=0;" edge="1" parent="1" source="Fx8gEMRj13vOH7JedruB-27" target="Fx8gEMRj13vOH7JedruB-36">
          <mxGeometry relative="1" as="geometry" />
        </mxCell>
        <mxCell id="Fx8gEMRj13vOH7JedruB-27" value="영화 예매하기" style="ellipse;whiteSpace=wrap;html=1;" vertex="1" parent="1">
          <mxGeometry x="910" y="182.5" width="120" height="50" as="geometry" />
        </mxCell>
        <mxCell id="Fx8gEMRj13vOH7JedruB-32" style="edgeStyle=orthogonalEdgeStyle;rounded=0;orthogonalLoop=1;jettySize=auto;html=1;entryX=0;entryY=0.5;entryDx=0;entryDy=0;" edge="1" parent="1" source="Fx8gEMRj13vOH7JedruB-28" target="Fx8gEMRj13vOH7JedruB-26">
          <mxGeometry relative="1" as="geometry" />
        </mxCell>
        <mxCell id="Fx8gEMRj13vOH7JedruB-33" style="edgeStyle=orthogonalEdgeStyle;rounded=0;orthogonalLoop=1;jettySize=auto;html=1;entryX=0;entryY=0.5;entryDx=0;entryDy=0;" edge="1" parent="1" source="Fx8gEMRj13vOH7JedruB-28" target="Fx8gEMRj13vOH7JedruB-27">
          <mxGeometry relative="1" as="geometry" />
        </mxCell>
        <mxCell id="Fx8gEMRj13vOH7JedruB-34" style="edgeStyle=orthogonalEdgeStyle;rounded=0;orthogonalLoop=1;jettySize=auto;html=1;entryX=0;entryY=0.5;entryDx=0;entryDy=0;" edge="1" parent="1" source="Fx8gEMRj13vOH7JedruB-28" target="Fx8gEMRj13vOH7JedruB-30">
          <mxGeometry relative="1" as="geometry" />
        </mxCell>
        <mxCell id="Fx8gEMRj13vOH7JedruB-35" style="edgeStyle=orthogonalEdgeStyle;rounded=0;orthogonalLoop=1;jettySize=auto;html=1;entryX=0;entryY=0.5;entryDx=0;entryDy=0;" edge="1" parent="1" source="Fx8gEMRj13vOH7JedruB-28" target="Fx8gEMRj13vOH7JedruB-31">
          <mxGeometry relative="1" as="geometry" />
        </mxCell>
        <mxCell id="Fx8gEMRj13vOH7JedruB-28" value="자세히 보기" style="ellipse;whiteSpace=wrap;html=1;" vertex="1" parent="1">
          <mxGeometry x="710" y="145" width="120" height="50" as="geometry" />
        </mxCell>
        <mxCell id="Fx8gEMRj13vOH7JedruB-38" style="edgeStyle=orthogonalEdgeStyle;rounded=0;orthogonalLoop=1;jettySize=auto;html=1;entryX=0;entryY=0.5;entryDx=0;entryDy=0;" edge="1" parent="1" source="Fx8gEMRj13vOH7JedruB-30" target="Fx8gEMRj13vOH7JedruB-37">
          <mxGeometry relative="1" as="geometry" />
        </mxCell>
        <mxCell id="Fx8gEMRj13vOH7JedruB-30" value="OTT 링크 바로가기" style="ellipse;whiteSpace=wrap;html=1;" vertex="1" parent="1">
          <mxGeometry x="910" y="260" width="120" height="50" as="geometry" />
        </mxCell>
        <mxCell id="Fx8gEMRj13vOH7JedruB-44" style="edgeStyle=orthogonalEdgeStyle;rounded=0;orthogonalLoop=1;jettySize=auto;html=1;entryX=0;entryY=0.125;entryDx=0;entryDy=0;entryPerimeter=0;" edge="1" parent="1" source="Fx8gEMRj13vOH7JedruB-31" target="Fx8gEMRj13vOH7JedruB-40">
          <mxGeometry relative="1" as="geometry" />
        </mxCell>
        <mxCell id="Fx8gEMRj13vOH7JedruB-31" value="공유하기" style="ellipse;whiteSpace=wrap;html=1;" vertex="1" parent="1">
          <mxGeometry x="910" y="330" width="120" height="50" as="geometry" />
        </mxCell>
        <mxCell id="Fx8gEMRj13vOH7JedruB-36" value="제휴 영화관 링크" style="ellipse;whiteSpace=wrap;html=1;" vertex="1" parent="1">
          <mxGeometry x="1090" y="182.5" width="120" height="50" as="geometry" />
        </mxCell>
        <mxCell id="Fx8gEMRj13vOH7JedruB-37" value="OTT 연결" style="ellipse;whiteSpace=wrap;html=1;" vertex="1" parent="1">
          <mxGeometry x="1090" y="260" width="120" height="50" as="geometry" />
        </mxCell>
        <mxCell id="Fx8gEMRj13vOH7JedruB-40" value="공유하기" style="swimlane;fontStyle=0;childLayout=stackLayout;horizontal=1;startSize=30;horizontalStack=0;resizeParent=1;resizeParentMax=0;resizeLast=0;collapsible=1;marginBottom=0;whiteSpace=wrap;html=1;" vertex="1" parent="1">
          <mxGeometry x="1090" y="340" width="140" height="120" as="geometry" />
        </mxCell>
        <mxCell id="Fx8gEMRj13vOH7JedruB-41" value="sns 링크 보내기" style="text;strokeColor=none;fillColor=none;align=left;verticalAlign=middle;spacingLeft=4;spacingRight=4;overflow=hidden;points=[[0,0.5],[1,0.5]];portConstraint=eastwest;rotatable=0;whiteSpace=wrap;html=1;" vertex="1" parent="Fx8gEMRj13vOH7JedruB-40">
          <mxGeometry y="30" width="140" height="30" as="geometry" />
        </mxCell>
        <mxCell id="Fx8gEMRj13vOH7JedruB-42" value="카카오 링크 보내기" style="text;strokeColor=none;fillColor=none;align=left;verticalAlign=middle;spacingLeft=4;spacingRight=4;overflow=hidden;points=[[0,0.5],[1,0.5]];portConstraint=eastwest;rotatable=0;whiteSpace=wrap;html=1;" vertex="1" parent="Fx8gEMRj13vOH7JedruB-40">
          <mxGeometry y="60" width="140" height="30" as="geometry" />
        </mxCell>
        <mxCell id="Fx8gEMRj13vOH7JedruB-43" value="페이스북 공유하기" style="text;strokeColor=none;fillColor=none;align=left;verticalAlign=middle;spacingLeft=4;spacingRight=4;overflow=hidden;points=[[0,0.5],[1,0.5]];portConstraint=eastwest;rotatable=0;whiteSpace=wrap;html=1;" vertex="1" parent="Fx8gEMRj13vOH7JedruB-40">
          <mxGeometry y="90" width="140" height="30" as="geometry" />
        </mxCell>
      </root>
    </mxGraphModel>
  </diagram>
</mxfile>
